<svg width="47" height="47" viewBox="0 0 47 47" fill="none" xmlns="http://www.w3.org/2000/svg">
<path d="M32.5083 36.8783H14.4917C13.6867 36.8783 12.7858 36.2458 12.5175 35.4791L4.5825 13.2841C3.45167 10.1025 4.77417 9.12498 7.49583 11.08L14.9708 16.4275C16.2167 17.29 17.635 16.8491 18.1717 15.45L21.545 6.46082C22.6183 3.58582 24.4008 3.58582 25.4742 6.46082L28.8475 15.45C29.3842 16.8491 30.8025 17.29 32.0292 16.4275L39.0442 11.425C42.0342 9.27831 43.4717 10.3708 42.245 13.84L34.5017 35.5175C34.2142 36.2458 33.3133 36.8783 32.5083 36.8783Z" class="current-stroke" stroke-width="3" stroke-linecap="round" stroke-linejoin="round"/>
<path d="M12.9583 42.6666H34.0417" class="current-stroke" stroke-width="3" stroke-linecap="round" stroke-linejoin="round"/>
<path d="M18.7083 27.3334H28.2917" class="current-stroke" stroke-width="3" stroke-linecap="round" stroke-linejoin="round"/>
</svg>
