<svg width="47" height="47" viewBox="0 0 47 47" fill="none" xmlns="http://www.w3.org/2000/svg">
<path d="M16.7917 36.8591H15.8333C8.16668 36.8591 4.33334 34.9424 4.33334 25.3591V15.7758C4.33334 8.10909 8.16668 4.27576 15.8333 4.27576H31.1667C38.8333 4.27576 42.6667 8.10909 42.6667 15.7758V25.3591C42.6667 33.0258 38.8333 36.8591 31.1667 36.8591H30.2083C29.6142 36.8591 29.0392 37.1466 28.675 37.6258L25.8 41.4591C24.535 43.1458 22.465 43.1458 21.2 41.4591L18.325 37.6258C18.0183 37.2041 17.3283 36.8591 16.7917 36.8591Z" class="current-stroke" stroke-width="3" stroke-miterlimit="10" stroke-linecap="round" stroke-linejoin="round"/>
<path d="M15.8333 17.175L12 21.0084L15.8333 24.8417" class="current-stroke" stroke-width="3" stroke-miterlimit="10" stroke-linecap="round" stroke-linejoin="round"/>
<path d="M31.1667 17.175L35 21.0084L31.1667 24.8417" class="current-stroke" stroke-width="3" stroke-miterlimit="10" stroke-linecap="round" stroke-linejoin="round"/>
<path d="M25.4167 16.5425L21.5833 25.4742" class="current-stroke" stroke-width="3" stroke-miterlimit="10" stroke-linecap="round" stroke-linejoin="round"/>
</svg>
